<svg xmlns="http://www.w3.org/2000/svg" fill="none" viewBox="0 0 90 90"><path fill="#324660" d="M38 57h14v16H38z"/><path fill="#486688" d="M38 68.5a20.812 20.812 0 0 1 14 0V72H38v-3.5Z"/><path fill="#324660" d="M0 23a6 6 0 0 1 6-6h78a6 6 0 0 1 6 6v13a6 6 0 0 1-6 6H6a6 6 0 0 1-6-6V23Z"/><path fill="#486688" d="M6 17a6 6 0 0 0-6 6v13c0 1.365.456 2.624 1.224 3.632A16.518 16.518 0 0 0 8 26.292V17H6ZM82 17v9.293c0 5.323 2.56 10.26 6.776 13.34A5.974 5.974 0 0 0 90 36V23a6 6 0 0 0-6-6h-2Z"/><path fill="#749BBF" d="M0 35V23a6 6 0 0 1 6-6h1l-.073.038a10 10 0 0 0-5.217 7.27L0 35ZM90 35V23a6 6 0 0 0-6-6h-1l.073.038a10 10 0 0 1 5.217 7.27L90 35Z"/><path fill="#DAD8D6" d="M19.658 79.303a10.947 10.947 0 0 1 8.438-6.661 109.472 109.472 0 0 1 33.808 0 10.947 10.947 0 0 1 8.438 6.661L73 85.783a99.446 99.446 0 0 1-56 0l2.658-6.48Z"/><path fill="#F1F1F1" fill-rule="evenodd" d="M62.174 72.687a10.947 10.947 0 0 1 8.067 6.38 50.414 50.414 0 0 0-50.482 0 10.947 10.947 0 0 1 8.067-6.38 116.958 116.958 0 0 1 34.348 0Z" clip-rule="evenodd"/><path fill="#F1F1F1" d="M10 8a8 8 0 0 1 8-8h54a8 8 0 0 1 8 8v49a8 8 0 0 1-8 8H18a8 8 0 0 1-8-8V8Z"/><path fill="#F8F8F8" d="M10 32V8a8 8 0 0 1 8-8h44L20.275 1.07a9 9 0 0 0-8.749 8.389L10 32ZM80 33v24a8 8 0 0 1-8 8H28l42.636-1.093a8 8 0 0 0 7.776-7.457L80 33Z"/><path fill="#AED0F0" d="M18 10a2 2 0 0 1 2-2h50a2 2 0 0 1 2 2v45a2 2 0 0 1-2 2H20a2 2 0 0 1-2-2V10Z"/><path fill="#749BBF" d="M72 10v45a2 2 0 0 1-2 2H20l40.73-1.534a10 10 0 0 0 9.614-9.532L72 10Z" opacity=".5"/><path fill="#D0E6FB" d="M20 46.2V10h47.2l-22.441 2.157a23.674 23.674 0 0 0-20.702 17.821L20 46.2Z" opacity=".5"/><path fill="#324660" d="M41 25.001C41 27.766 38.725 30 36.062 30 33.258 30 31 27.767 31 25c0-2.765 2.275-4.998 5.062-4.998C38.725 19.908 41 22.236 41 25ZM59.334 25.001c0 2.765-2.276 4.999-5.062 4.999-2.787 0-4.938-2.233-4.938-4.999 0-2.765 2.275-4.998 4.938-4.998 2.804-.095 5.062 2.233 5.062 4.998Z"/><path fill="#324660" fill-rule="evenodd" d="M30.99 38.524a37.721 37.721 0 0 0 28.02 0l1.98 4.952a43.055 43.055 0 0 1-31.98 0l1.98-4.952Z" clip-rule="evenodd"/></svg>